<svg xmlns="http://www.w3.org/2000/svg" xmlns:xlink="http://www.w3.org/1999/xlink" width="229.819" height="97.241" viewBox="0 0 229.819 97.241">
  <defs>
    <clipPath id="clip-path">
      <rect id="Rectangle_1" data-name="Rectangle 1" width="229.819" height="97.241" fill="none"/>
    </clipPath>
  </defs>
  <g id="Group_2" data-name="Group 2" clip-path="url(#clip-path)">
    <path id="Path_2" data-name="Path 2" d="M82.38,19.967c.032-.031.054-.059.011-.13-.061-.1-.22-.313-.558-.8a47.153,47.153,0,0,0-6.385-7.261A44.167,44.167,0,0,0,45.545,0C28.584,0,17.081,9.254,11.153,15.874A52.519,52.519,0,0,0,2.388,29.666c-.079.2-.115.241-.032.276s.119-.1.225-.288a38.084,38.084,0,0,1,9.7-12.2c6.56-5.381,17.493-11.586,33.433-11.586A54.487,54.487,0,0,1,73.619,13.4a47.669,47.669,0,0,1,7.976,5.953c.36.337.549.5.646.585.067.056.108.054.139.027" transform="translate(1.849)" fill="#fff"/>
    <path id="Path_3" data-name="Path 3" d="M.283,25.24c.038,0,.067.005.081.038a3.264,3.264,0,0,1,.007.618,37.932,37.932,0,0,0,3.7,16.533,50.9,50.9,0,0,0,23.286,23.46A54.321,54.321,0,0,0,57.581,71.4a48.925,48.925,0,0,0,14.574-4.09c.272-.113.324-.182.353-.126a.064.064,0,0,1,0,.049,1.861,1.861,0,0,1-.277.25c-.223.189-.582.488-1.055.845-.92.693-2.757,2.364-8.934,4.985a44.652,44.652,0,0,1-38.471-1.9c-14.2-7.689-20.552-21-22.706-31.16a51.587,51.587,0,0,1-.9-14.6A2.65,2.65,0,0,1,.2,25.3a.074.074,0,0,1,.085-.061" transform="translate(0 20.211)" fill="#fff"/>
    <path id="Path_4" data-name="Path 4" d="M46.988,45.968V34.76l8.053-17.3H48.764l-4.8,11.352-4.8-11.352H32.62L40.633,34.8v11.17ZM100.5,40.63H91.91V17.46H85.555V45.968H100.5ZM24.846,33.843c-2.017-4.019-8.354-15.667-8.654-16.219L16.1,17.46H9.687V45.968h5.827V29.152c2.073,3.936,8.934,16.079,9.258,16.655l.092.16h5.809V17.46H24.846Zm51.667,2.128V17.46H70.421V35.707c0,3.738-1.055,5.262-3.641,5.262-2.622,0-3.643-1.486-3.643-5.3V17.46H56.782V36.01c0,6.908,3.339,10.41,9.922,10.41,6.6,0,9.809-3.418,9.809-10.448m31.729,40.063a5.012,5.012,0,0,1-4.066,2.453c-1.979,0-3.054-1.41-3.283-4.307h11.244V72.848c0-7.072-3.054-11.127-8.377-11.127-4.142,0-8.979,2.825-8.979,10.788,0,6.731,3.412,10.751,9.13,10.751a9.23,9.23,0,0,0,8.1-4.28l.164-.241-3.742-3Zm-4.482-9.429c.589,0,2.343,0,2.676,3.78h-5.491c.3-2.44,1.3-3.78,2.815-3.78m69.074-41.761a8.67,8.67,0,0,0-6.375,2.5c-1.853,1.9-2.793,4.682-2.793,8.282,0,7.927,4.736,10.751,9.168,10.751S182,43.558,182,35.631c0-3.594-.944-6.382-2.807-8.282a8.662,8.662,0,0,0-6.36-2.5m0,16.652c-1.271,0-2.964-.607-2.964-5.865,0-3.978.915-5.752,2.964-5.752,1.273,0,2.964.6,2.964,5.752,0,4.057-.913,5.865-2.964,5.865M171.39,61.721a7.848,7.848,0,0,0-5.676,2.627V53.52l-6.2.83v28.5h6.2V68.692a5.176,5.176,0,0,1,3.189-1.633c.776,0,1.495.245,1.495,2.022V82.846h6.166V67.31c0-3.657-1.788-5.59-5.174-5.59m46.928-22.862-.187.3a5.01,5.01,0,0,1-4.066,2.453c-1.977,0-3.054-1.41-3.281-4.307h11.242V35.972c0-7.072-3.052-11.127-8.375-11.127-4.144,0-8.98,2.825-8.98,10.787,0,6.731,3.414,10.751,9.13,10.751a9.224,9.224,0,0,0,8.1-4.28l.164-.239ZM213.65,29.73c.587,0,2.341,0,2.674,3.78h-5.491c.3-2.442,1.3-3.78,2.816-3.78M196.8,24.845a7.852,7.852,0,0,0-5.678,2.627V25.259h-6.2V45.968h6.2V31.816a5.179,5.179,0,0,1,3.191-1.633c.776,0,1.495.245,1.495,2.02V45.968h6.166V30.433c0-3.656-1.79-5.588-5.174-5.588m-44.335,30.44-6.166.821v6.029h-2.863v4.736H146.3v10.65c0,4.1,1.678,5.55,6.418,5.55a21.037,21.037,0,0,0,3.557-.277l.223-.067v-4.7l-.438.187a5.9,5.9,0,0,1-1.534.2c-1.695,0-2.06-.407-2.06-2.287V66.871h4.295V62.135h-4.295Zm-16.576-30.44a7.845,7.845,0,0,0-5.676,2.627V25.259H124.01V45.968h6.205V31.816a5.175,5.175,0,0,1,3.189-1.633c.776,0,1.495.245,1.495,2.02V45.968h6.166V30.433c0-3.656-1.79-5.588-5.174-5.588M114.4,45.968h6.186l-.157-.423a14.748,14.748,0,0,1-.47-4.788v-8.93c0-4.763-2.123-6.982-6.681-6.982a13.945,13.945,0,0,0-9.324,3.317l-.221.193,2.89,3.8.249-.184a9.885,9.885,0,0,1,5.352-2.125c1.239,0,1.722.556,1.722,1.984v.567c-7.277,1.37-10.814,4.07-10.814,8.249,0,3.528,1.9,5.55,5.211,5.55a7.3,7.3,0,0,0,5.629-2.429,8.707,8.707,0,0,0,.362,1.981ZM113.94,39.9a4.752,4.752,0,0,1-3.229,1.4,1.469,1.469,0,0,1-1.568-1.684c0-1.181.555-2.653,4.8-3.639Zm17.1,37.728V68.7c0-4.765-2.123-6.983-6.681-6.983a13.945,13.945,0,0,0-9.324,3.317l-.222.194,2.89,3.794.249-.184A9.9,9.9,0,0,1,123.3,66.72c1.239,0,1.72.556,1.72,1.984v.567c-7.275,1.37-10.812,4.07-10.812,8.249,0,3.526,1.9,5.55,5.211,5.55a7.3,7.3,0,0,0,5.629-2.429,8.571,8.571,0,0,0,.362,1.979l.067.225h6.186l-.157-.423a14.754,14.754,0,0,1-.47-4.79m-6.016-.852a4.74,4.74,0,0,1-3.227,1.4,1.469,1.469,0,0,1-1.57-1.682c0-1.181.556-2.653,4.8-3.639Zm9.838,6.065h6.2V56.8l-6.2.825ZM85.467,65.45H76.513V54.77H70.158V82.846h6.355V70.826h8.953v12.02h6.355V54.77H85.467Zm57.677-16.707c0,3.292,2.7,4.572,8.753,4.572,6.348,0,10.448-2.332,10.448-6.229,0-3.85-2.384-5.386-8.505-5.8l-2.589-.124c-1.5-.158-1.565-.5-1.565-.855a.783.783,0,0,1,.331-.6,11.071,11.071,0,0,0,2.483.272c5,0,8.112-2.892,8.112-7.547a7.421,7.421,0,0,0-.357-2.211,12.984,12.984,0,0,1,2.379-.187h.313v-5.26l-.348.038a8.837,8.837,0,0,0-4.37,1.921,8.466,8.466,0,0,0-5.73-1.885c-5.021,0-8.264,2.977-8.264,7.585a7.272,7.272,0,0,0,2.676,5.867,5.127,5.127,0,0,0-2.337,3.816,3.14,3.14,0,0,0,1.293,2.57c-1.831,1.057-2.725,2.39-2.725,4.061m9.395-19.466c1.983,0,2.4,1.8,2.4,3.3,0,2.123-.875,3.34-2.4,3.34-2.087,0-2.4-2.094-2.4-3.34s.312-3.3,2.4-3.3m-3.1,16.691a2.92,2.92,0,0,0,.375.014l3.038.263c3.744.267,3.927.8,3.927,1.714,0,1.178-1.594,1.939-4.057,1.939-3.463,0-4.172-.85-4.172-2.127a2.418,2.418,0,0,1,.89-1.8" transform="translate(7.757 13.981)" fill="#fff"/>
  </g>
</svg>
